<svg width="244" height="40" viewBox="0 0 244 40" fill="none" xmlns="http://www.w3.org/2000/svg">
<path d="M195.962 24.7751L196.187 24.7501V24.5251C196.174 24.1001 195.974 14.1626 192.099 10.6751C191.112 9.78764 189.962 9.40014 188.687 9.51264C183.874 9.92514 181.049 14.8626 181.137 22.7251C181.162 26.9001 182.587 29.2751 184.274 30.6501C185.962 32.0376 187.912 32.4251 188.987 32.6376C189.324 32.7126 189.712 32.7376 190.112 32.7376C192.537 32.7376 195.787 31.6751 195.937 31.6251L196.162 31.5501L196.099 31.3251C196.099 31.3251 195.812 30.0876 195.599 29.3751C195.424 28.6876 195.137 27.4001 195.137 27.4001L195.074 27.1501L194.824 27.2126C194.824 27.2126 189.962 28.3751 188.612 28.1376C187.737 27.9751 186.924 26.6501 186.549 25.8876C187.362 25.7751 189.474 25.5001 190.862 25.3501C192.437 25.2501 195.937 24.7751 195.962 24.7751ZM191.087 21.3376C190.549 21.3876 189.237 21.5001 188.349 21.6501L186.274 22.0001C186.174 19.6376 186.287 14.3501 187.949 14.1251C188.024 14.1126 188.087 14.1126 188.162 14.1126C188.487 14.1126 188.799 14.2251 189.074 14.4626C190.662 15.8001 191.024 20.2501 191.087 21.3376Z" fill="#137289"/>
<path d="M178.3 30.5001C178.3 30.5001 178.163 28.1001 178.088 25.8626C178.05 23.2126 178.025 18.9626 178.088 15.6876C178.125 12.2126 178.237 2.40012 178.237 2.40012V2.21262L178.062 2.16262C178.062 2.16262 177.125 1.86262 176.1 1.75012C175.263 1.65012 173.938 1.32512 173.925 1.32512L173.613 1.25012V1.56262C173.613 1.56262 173.65 7.47512 173.575 10.1876C173.538 11.5751 173.462 12.9876 173.412 13.8376C172.687 12.7626 171.063 10.8501 168.538 10.8501H168.487C166.325 10.8876 161.5 13.6001 161.2 21.4501C161.188 21.6876 161.188 21.9126 161.188 22.1251C161.188 28.5501 164.95 31.3376 168.563 31.8126C168.738 31.8376 168.913 31.8501 169.088 31.8501C171.288 31.8501 172.988 30.0751 173.713 29.1376L173.925 31.3626H174.175C174.175 31.3626 175.35 31.2376 176 31.1251C176.65 31.0126 178.1 30.7626 178.1 30.7626L178.312 30.7251V30.5001H178.3ZM170.313 15.6001C171.513 16.3251 172.638 17.9001 172.938 19.2751C173.313 21.1001 173.363 22.5126 173.113 23.7251C172.925 24.8126 171.913 27.0251 169.95 27.0251H169.875C167.625 26.9126 166.025 24.0501 165.925 21.4501C165.825 19.0126 166.263 15.9751 168.875 15.2751C169.275 15.1626 169.775 15.2751 170.313 15.6001Z" fill="#137289"/>
<path d="M119.487 30.5002C119.487 30.5002 119.162 26.4502 119.162 24.6377C119.162 22.8252 119.412 13.2877 119.412 13.2002V12.9877L119.212 12.9502C119.212 12.9502 117.625 12.6502 116.95 12.5127C116.262 12.3377 115.287 12.1127 115.287 12.1127L115 12.0502L114.887 13.7127C114.15 12.8752 112.425 11.3627 109.662 11.4627C105.337 11.5877 101.975 15.3627 101.087 21.1002C100.6 24.1877 101.212 27.0377 102.8 29.1252C104.112 30.8502 106.025 31.9252 108.162 32.1752C108.437 32.2127 108.7 32.2252 108.962 32.2252C112.15 32.2252 114.487 30.0502 115.412 29.0377L115.5 30.8502L115.712 30.8752C115.712 30.8752 116.9 30.9877 117.587 30.9502C118.425 30.9127 119.25 30.7752 119.275 30.7627L119.5 30.7252V30.5002H119.487ZM105.587 20.8002C105.887 18.4377 107.125 15.7877 109.7 15.4252C110.412 15.3127 111.3 15.6877 112.137 16.4377C113.25 17.4502 114.425 19.3502 114.325 21.6377C114.3 22.7377 113.425 25.4877 111.775 27.0252C110.937 27.8127 110 28.1877 109 28.1377C108.075 28.0877 107.325 27.7127 106.75 27.0377C105.5 25.5252 105.337 22.7377 105.587 20.8002Z" fill="#137289"/>
<path d="M239.286 39.3126C238.186 39.6376 236.811 39.7501 235.449 39.7501C232.336 39.7501 229.211 39.1751 229.024 39.1376L228.824 39.1001V37.1626C228.824 36.3876 228.674 34.8501 228.674 34.8376L228.649 34.5251L228.961 34.5626C229.036 34.5751 235.724 35.5876 237.574 34.5626C238.536 34.0251 238.536 32.8501 238.536 32.0751C238.536 31.6126 238.474 30.8751 238.436 30.3501C237.699 31.1501 235.961 32.5751 233.224 32.2126C229.074 31.6751 227.586 27.3501 227.124 25.5251C226.486 23.0376 226.374 12.4126 226.361 11.9626V11.6876L226.636 11.7126C226.636 11.7126 228.324 11.8626 228.936 11.8876C229.561 11.9251 230.949 11.8251 230.961 11.8251L231.224 11.8001V12.0626C231.236 12.1626 231.349 20.9251 231.911 23.8251C232.311 25.8876 232.974 27.1376 233.874 27.5626C234.499 27.8501 235.249 27.7501 236.136 27.2626C237.686 26.4126 237.499 23.4251 237.324 20.7876C237.286 20.1126 237.249 19.4501 237.236 18.8251C237.124 15.7376 236.624 11.1001 236.624 11.0501L236.586 10.7626H236.874C236.874 10.7626 238.236 10.8126 239.174 10.8126C240.111 10.8126 241.411 10.7751 241.411 10.7751H241.674L241.661 11.0251C241.661 11.1001 241.661 12.8376 243.074 25.6126C243.561 30.1251 243.311 38.0751 239.286 39.3126Z" fill="#137289"/>
<path d="M223.698 29.075V29.325H223.448C223.448 29.325 222.286 29.325 221.436 29.3625C220.573 29.4 219.236 29.4375 219.236 29.4375H218.961V29.175C219.111 26.3875 219.148 18.9 217.798 17.6625C217.686 17.5375 217.561 17.5 217.423 17.5125C215.961 17.7375 215.236 19.7875 214.661 21.4375C214.561 21.7125 214.461 21.9875 214.373 22.2375C213.748 23.8375 213.561 29.2125 213.561 29.2625V29.55L213.261 29.5C213.211 29.4875 212.086 29.2875 211.511 29.1375C211.323 29.1 210.961 29.0625 210.586 29.025C209.198 28.875 208.936 28.8375 208.936 28.5375C208.936 28.525 208.948 28.4375 208.961 28.2875C209.536 22.5125 209.423 18.525 208.673 17.6125C208.586 17.5125 208.511 17.45 208.411 17.45C206.936 17.3125 204.736 21.1375 203.986 22.675C203.961 23.05 203.811 25.4875 203.886 26.5C203.948 27.575 204.136 30.0375 204.136 30.0375V30.25L203.936 30.3C203.861 30.3125 202.098 30.6625 201.398 30.6625C200.698 30.6625 199.473 30.7625 199.461 30.7625L199.186 30.7875V30.5125C199.186 30.5125 199.223 26.875 199.223 25.1375C199.223 24.025 199.136 22.3375 199.048 20.7125C198.973 19.4625 198.898 18.1625 198.873 17.1L198.711 12.0125H198.973C198.973 12.0125 200.736 11.9625 201.648 11.9625C202.561 11.9625 203.723 12.1 203.773 12.1125L204.061 12.15L203.986 12.425C203.986 12.425 203.736 13.35 203.736 14.3125C203.736 14.65 203.723 15.2625 203.723 15.7875C204.723 14.325 207.161 11.2875 209.736 11.675C212.011 11.9875 212.923 15 213.248 16.6C213.961 14.8 215.798 11.025 218.823 11.025H219.061C221.998 11.25 222.686 15.1125 223.248 18.2125L223.336 18.7C223.873 21.6625 223.711 28.775 223.698 29.075Z" fill="#137289"/>
<path d="M158.436 30.5001C158.436 30.5001 158.111 26.4501 158.111 24.6376C158.111 22.8251 158.361 13.2876 158.361 13.2001V12.9876L158.161 12.9501C158.161 12.9501 156.574 12.6501 155.899 12.5126C155.211 12.3376 154.236 12.1126 154.236 12.1126L153.949 12.0501L153.836 13.7126C153.111 12.9001 151.474 11.4626 148.824 11.4626H148.611C144.286 11.5876 140.924 15.3626 140.036 21.1001C139.549 24.1876 140.161 27.0376 141.749 29.1251C143.061 30.8501 144.974 31.9251 147.111 32.1751C147.386 32.2126 147.649 32.2251 147.911 32.2251C151.099 32.2251 153.436 30.0501 154.361 29.0376L154.449 30.8501L154.661 30.8751C154.661 30.8751 155.849 30.9876 156.536 30.9501C157.374 30.9126 158.199 30.7751 158.224 30.7626L158.449 30.7251V30.5001H158.436ZM144.536 20.8001C144.836 18.4376 146.074 15.7876 148.649 15.4251C149.361 15.3251 150.249 15.6876 151.086 16.4376C152.199 17.4501 153.374 19.3501 153.274 21.6376C153.249 22.7376 152.386 25.4876 150.724 27.0251C149.886 27.8126 148.961 28.1751 147.949 28.1376C147.024 28.0876 146.274 27.7126 145.699 27.0376C144.449 25.5251 144.286 22.7376 144.536 20.8001Z" fill="#137289"/>
<path d="M137.575 26.3501L137.5 26.5626C137.45 26.7126 136.2 30.2501 133.075 31.6126C132.287 31.9501 131.45 32.1251 130.575 32.1251C129.45 32.1251 128.263 31.8501 127.013 31.2876C123.95 29.9251 122.188 26.6876 122.188 22.5501C122.188 22.2876 122.2 22.0251 122.212 21.7626C122.462 17.2251 124.962 11.9001 129.275 10.5001C130.787 10.0126 132.162 10.1001 133.375 10.7751C135.912 12.1626 136.813 15.5501 136.85 15.6876L136.9 15.8626L136.75 15.9626C136.75 15.9626 135.963 16.4626 135.513 16.8751C135.013 17.3501 133.713 18.5751 133.713 18.5751L133.425 18.8376L133.313 18.4626C133.313 18.4626 132.437 15.8751 130.75 15.7501C130.237 15.7126 129.662 15.9501 129.1 16.4501C127.85 17.5751 126.962 19.7251 126.9 21.7876C126.8 24.9001 127.937 26.8501 130.087 27.2751C131.9 27.6376 133.587 24.4751 133.612 24.4501L133.725 24.2251L133.938 24.3376C133.938 24.3376 135.262 25.0001 135.875 25.4001C136.437 25.7876 137.363 26.2501 137.375 26.2501L137.575 26.3501Z" fill="#137289"/>
<path d="M19.7292 25.0402C19.7681 26.152 19.2383 27.4588 18.1754 28.8968C16.5984 31.0156 14.4605 32.1159 11.862 32.2066C8.92634 32.3092 6.59125 31.7028 4.94337 30.3595C4.20949 29.7597 3.51337 28.8084 2.93039 27.5155C1.91581 25.3246 1.27068 20.8193 1.19391 18.6207C1.08135 15.3976 1.85259 12.7691 3.4607 10.8243C5.04687 8.96783 7.30113 7.97605 10.1619 7.87615C11.8109 7.81857 13.2584 8.08071 14.392 8.6665C15.3852 9.16965 16.2626 9.9395 16.9837 10.8899C17.6402 11.78 17.9787 12.5187 18.0005 13.1433C18.0192 13.6805 17.7489 14.1777 17.227 14.6337C16.7288 15.0513 16.162 15.2963 15.5624 15.3172C14.9627 15.3381 14.4655 15.0678 13.9979 14.5714C13.5811 14.0981 13.1643 13.6249 12.7467 13.1266C12.0567 12.3502 11.2191 12.0043 10.1697 12.0409C7.54634 12.1325 6.3303 14.2012 6.47818 18.4361C6.55714 20.6973 7.187 24.7653 8.14562 26.0701C9.10424 27.3749 10.2142 27.9991 11.5009 27.9541C12.7876 27.9092 13.987 27.1544 15.1374 25.7134C15.4974 25.2755 15.8426 24.7757 16.2013 24.3004C16.7572 23.7431 17.3102 23.4612 17.9473 23.4389C18.4345 23.4219 18.839 23.5454 19.1877 23.8584C19.5359 24.1589 19.7247 24.5526 19.7417 25.0398L19.7292 25.0402Z" fill="#F05A26" stroke="#F05A26" stroke-width="0.5"/>
<path d="M37.6256 15.1361C35.9651 12.9017 33.6554 11.7079 30.7571 11.6067C28.1837 11.5168 26.0156 12.3542 24.3279 14.1214C22.614 15.9251 21.6901 18.3819 21.5846 21.405C21.5117 23.4913 21.7792 25.5018 22.4004 27.4122C22.9412 29.1196 23.6346 30.3946 24.4682 31.2367C25.8707 32.624 28.1328 33.3909 31.1559 33.4965C33.5295 33.5793 35.6162 32.564 37.3411 30.4479C38.9474 28.5028 39.8009 26.2688 39.8847 23.8702C40.0103 20.2724 39.25 17.3316 37.6136 15.1231L37.6256 15.1361ZM31.3961 29.1272C29.8595 29.0735 28.6812 28.432 27.7745 27.1746C26.7942 25.8771 26.3426 24.1228 26.4203 21.8991C26.4901 19.9003 26.9448 18.3402 27.7176 17.3416C28.4918 16.3055 29.5452 15.867 30.8819 15.9137C31.9063 15.9494 32.9075 16.6473 33.9008 17.9328C34.6795 19.2733 35.0514 20.7997 34.9925 22.4861C34.8359 26.9709 33.6193 29.2173 31.3956 29.1397L31.3961 29.1272Z" fill="#F05A26" stroke="#F05A26" stroke-width="0.5"/>
<path d="M57.2284 14.4469C57.339 16.5565 56.2273 17.0779 55.2536 17.1289C54.592 17.1636 54.0165 16.9309 53.5048 16.482C53.3183 16.2665 52.9262 15.7112 52.3042 14.8301C51.6265 13.8392 50.9131 13.3634 50.2265 13.3994C49.7147 13.4262 49.352 13.6705 49.1279 14.1704C48.3266 15.8396 47.9538 17.3237 48.0179 18.547C48.0343 18.8591 48.1582 20.0292 48.3364 21.9976C48.5285 23.9903 48.6739 25.8101 48.7609 27.4704C48.8924 29.9794 48.1846 31.2807 46.7116 31.3579C45.4633 31.4234 44.5023 30.7602 43.8686 29.4166L43.8627 29.3042L43.5821 26.5777C42.9378 19.7771 42.5354 15.4422 42.4471 13.757C42.2946 10.8485 43.0157 9.32117 44.5261 9.24201C45.6621 9.18248 46.4122 9.88168 46.7541 11.3908C47.9233 9.815 49.2571 8.99407 50.6802 8.91949C52.5027 8.82398 54.0412 9.28158 55.2715 10.3061C56.4644 11.3326 57.1382 12.7242 57.2297 14.4718L57.2284 14.4469Z" fill="#F05A26" stroke="#F05A26" stroke-width="0.5"/>
<path d="M75.79 31.8265C75.7847 31.4507 75.7595 30.7359 75.7291 29.6453C75.7267 28.018 75.7638 26.3551 75.8508 24.6949L76.0739 20.4383C76.3055 16.0193 76.2379 13.4873 75.9427 12.6708C75.712 12.0578 75.1029 11.738 74.1667 11.689C73.3678 11.6471 72.3791 11.8832 72.0575 13.2432C71.0179 12.3 69.9042 11.816 68.7308 11.7546C66.7086 11.6486 65.1115 12.028 64.0152 12.8843C60.8629 15.235 59.1745 18.5512 58.956 22.7205C58.7957 25.7788 59.4369 28.3534 60.8722 30.3437C62.3042 32.3965 64.2511 33.4623 66.6478 33.588C68.1332 33.6658 69.7368 32.9237 71.4827 31.3755C71.7879 33.1939 72.5391 34.1471 73.7375 34.2099C74.6237 34.2563 75.7307 33.9138 75.8262 32.0913L75.8412 31.8042L75.8163 31.8029L75.79 31.8265ZM67.1929 29.6361C66.1443 29.5811 65.3085 29.0491 64.6756 27.9896C64.0446 26.8925 63.7585 25.4256 63.8547 23.5906C63.9816 21.1689 64.5455 19.2458 65.4702 17.8422C66.3411 16.511 67.3987 15.9155 68.6844 15.9829C69.2836 16.0143 70.1594 16.2605 71.2745 16.7195C71.299 17.9224 71.2849 19.1484 71.2175 20.4341C70.8917 26.6506 69.5272 29.7584 67.1929 29.6361Z" fill="#F05A26" stroke="#F05A26" stroke-width="0.5"/>
<path d="M91.1575 31.852C90.3644 32.244 89.2336 32.6413 87.8855 32.7119C87.3737 32.7387 86.8218 32.7176 86.2411 32.6229C85.6229 32.5301 84.4739 32.34 83.3802 31.5336C83.3677 31.5343 83.3545 31.5224 83.3414 31.5106C83.1463 31.3706 82.9499 31.2057 82.7522 31.0158C82.4093 30.6832 82.1276 30.3225 81.9207 29.9578C81.9075 29.946 81.8944 29.9342 81.9062 29.921C81.8097 29.7508 81.7263 29.5925 81.6298 29.4223C81.545 29.239 81.4597 29.0432 81.4124 28.8579C81.2727 28.1017 81.1598 27.3816 81.0621 26.7108L81.0608 26.6858C80.6015 23.6557 80.4503 21.4857 80.4086 19.9733C80.3212 16.8736 80.2978 15.7107 80.2978 15.7107C80.2581 13.998 80.2315 12.7727 80.1988 12.1485C80.1569 11.3496 80.0579 10.1782 79.9289 8.67039C79.7604 7.1271 79.6745 5.9675 79.634 5.19356C79.5784 4.13252 79.821 3.26863 80.2981 2.58022C80.7989 1.86553 81.4928 1.4912 82.379 1.44476C83.3153 1.39569 83.9932 1.67309 84.3367 2.25591C84.556 2.61993 84.7011 3.23819 84.7725 4.12316L84.7876 4.41027C84.7876 4.41027 84.8012 5.14807 84.8244 7.26225C84.8403 9.23912 84.9246 11.3251 85.0365 13.4596C85.2432 17.4042 85.4402 18.0573 85.6705 22.2135C85.7497 23.7239 85.7901 24.9735 85.811 25.8486L85.8234 26.0858C85.8063 26.2369 85.7767 26.3886 85.7596 26.5397C85.7747 26.589 85.8022 26.6376 85.818 26.6994C85.8074 26.9753 85.8546 27.3984 86.0799 27.637C86.2638 27.8026 86.5424 27.8631 86.997 27.9394C87.83 28.071 88.5804 27.8189 89.0561 27.5811C90.2401 27.0059 91.6676 27.4943 92.2422 28.6659C92.8175 29.8499 92.3284 31.2649 91.1575 31.852Z" fill="#F05A26" stroke="#F05A26" stroke-width="0.5"/>
</svg>
